<svg viewBox="0 0 1024 1024" version="1.1" xmlns="http://www.w3.org/2000/svg">
    <path d="M762.464 263.776a141.568 141.568 0 0 1 71.136 40.992 187.296 187.296 0 0 1 27.264 36.576c0.352 1.44-49.088 34.656-79.072 53.184-1.088 0.736-5.408-3.968-10.304-11.2a64.448 64.448 0 0 0-53.44-32c-34.464-2.368-56.672 15.68-56.512 45.856a41.6 41.6 0 0 0 4.896 21.312c7.584 15.68 21.664 25.088 65.888 44.256 81.408 35.2 116.352 58.144 137.92 90.976a165.056 165.056 0 0 1 13.312 138.656 152.448 152.448 0 0 1-125.824 90.08 348.8 348.8 0 0 1-86.656-0.896 208.992 208.992 0 0 1-115.712-60.288 200.896 200.896 0 0 1-29.632-43.872 84.96 84.96 0 0 1 10.464-6.656c5.056-2.88 24.192-13.888 42.24-24.352l32.768-19.2 6.848 9.984a152.672 152.672 0 0 0 43.2 41.344 105.6 105.6 0 0 0 110.656-5.6 49.44 49.44 0 0 0 6.4-63.168c-8.832-12.8-26.88-23.264-78.176-45.504a281.6 281.6 0 0 1-107.168-65.76 149.984 149.984 0 0 1-31.232-56.864 227.712 227.712 0 0 1-1.984-72.576 138.624 138.624 0 0 1 116.608-107.968 288 288 0 0 1 86.112 2.688z m-266.976 47.456l0.352 46.528h-148.16v420.736H243.2V357.856H95.04V312.16a447.552 447.552 0 0 1 1.28-46.912c0.544-0.736 90.624-1.088 199.84-0.896l198.752 0.544z"
          fill="#007ACC"/>
    <path d="M866.4 803.424l11.616-11.552c53.76 1.76 54.592 0 56.96-5.664l14.784-35.968 1.088-3.424-1.216-2.976c-0.64-1.568-2.592-6.4-36.16-38.4v-16.832c38.752-37.312 37.92-39.232 35.712-44.8l-14.72-36.352c-2.208-5.44-3.2-7.584-56.416-6.112l-11.648-11.744a260.416 260.416 0 0 0-1.824-53.024l-1.504-3.392-38.4-16.8c-5.664-2.592-7.648-3.52-43.904 35.968l-16.288-0.256c-37.344-39.84-39.104-39.136-44.8-36.864l-35.68 14.464c-5.6 2.272-7.552 3.2-5.408 57.28l-11.52 11.488c-53.76-1.76-54.4 0-56.896 5.664L595.392 640l-1.152 3.456 1.216 3.008c0.64 1.536 2.496 6.208 36.16 38.4v16.8c-38.752 37.312-37.888 39.232-35.68 44.8l14.688 36.384c2.24 5.568 3.2 7.552 56.416 6.144l11.616 12.064a261.408 261.408 0 0 0 1.76 52.928l1.504 3.424 38.656 16.896c5.632 2.336 7.552 3.2 43.712-36.16l16.288 0.192c37.376 39.904 39.296 39.136 44.8 36.928l35.616-14.4c5.632-2.4 7.584-3.264 5.408-57.44z m-153.216-84.224a64 64 0 1 1 83.776 36.48 64.736 64.736 0 0 1-83.776-36.48z"
          fill="#99B8C4"/>
</svg>